<svg width="32" height="35" viewBox="0 0 32 35" fill="none" xmlns="http://www.w3.org/2000/svg">
<path d="M22.2753 34.2253H1.99637C0.895362 34.2253 0 33.3326 0 32.2359V1.99637C0 0.895361 0.895627 0 1.99637 0H22.2753C23.3763 0 24.2719 0.895361 24.2719 1.99637V7.46104L23.6002 7.50009C21.7768 7.60665 19.9661 8.55793 18.8747 9.98165C18.2884 10.7462 17.6575 11.9871 17.9819 13.5516C18.6771 16.8827 22.9123 25.3191 24.1938 27.8258L24.2719 27.9784V32.2358C24.2719 33.3327 23.376 34.2252 22.2752 34.2252L22.2753 34.2253ZM1.99637 1.4261C1.6767 1.4261 1.42608 1.67672 1.42608 1.99639V32.2366C1.42608 32.5527 1.6767 32.7996 1.99637 32.7996H22.2753C22.59 32.7996 22.8458 32.547 22.8458 32.2363V28.3225C21.1349 24.9698 17.2867 17.2005 16.5858 13.8429V13.8422C16.2467 12.2086 16.6575 10.5299 17.7427 9.11409C18.9446 7.54596 20.8549 6.44707 22.8458 6.14707V1.99648C22.8458 1.68173 22.59 1.42619 22.2753 1.42619L1.99637 1.4261Z" fill="white"/>
<path d="M23.9312 30.4281L22.9272 28.4811C21.2556 25.2112 17.2978 17.2526 16.5862 13.8427C16.2472 12.2084 16.6579 10.5296 17.7431 9.11412C19.0798 7.37041 21.2923 6.2063 23.5176 6.07672C25.9358 5.93809 28.4648 7.05769 30.006 8.9525C31.1861 10.4037 31.6416 12.1402 31.2875 13.8427L31.2872 13.8435C30.4213 17.9705 24.8077 28.7514 24.5689 29.2076L23.9312 30.4281ZM23.9369 7.48627C23.8231 7.48627 23.7155 7.49248 23.6017 7.49946C21.7773 7.60602 19.9666 8.5573 18.8751 9.98102C18.2886 10.7463 17.658 11.9865 17.9824 13.5517C18.6362 16.6838 22.4213 24.3334 23.9356 27.3175C25.4533 24.3283 29.2314 16.6967 29.8919 13.5504C30.2307 11.9182 29.5397 10.6385 28.8996 9.85145C27.7308 8.41528 25.7825 7.48649 23.9369 7.48649L23.9369 7.48627Z" fill="white"/>
<path d="M23.9371 16.8306C21.9982 16.8306 20.4208 15.2534 20.4208 13.3142C20.4208 11.375 21.9982 9.79785 23.9371 9.79785C25.8761 9.79785 27.4535 11.375 27.4535 13.3142C27.4535 15.2534 25.8761 16.8306 23.9371 16.8306ZM23.9371 11.2236C22.7844 11.2236 21.8469 12.1617 21.8469 13.3139C21.8469 14.4663 22.7844 15.4041 23.9371 15.4041C25.0899 15.4041 26.0274 14.4661 26.0274 13.3139C26.0274 12.1617 25.0899 11.2236 23.9371 11.2236Z" fill="white"/>
<path d="M4.99304 0.712891H6.41914V33.5121H4.99304V0.712891Z" fill="white"/>
<path d="M17.8273 0.712891H19.2534V9.2752H17.8273V0.712891Z" fill="white"/>
<path d="M17.8273 17.2297H19.2534V33.5128H17.8273V17.2297Z" fill="white"/>
<path d="M0.713257 9.27002H18.0061V10.6961H0.713257V9.27002Z" fill="white"/>
<path d="M0.713257 24.2434H21.9204V25.6695H0.713257V24.2434Z" fill="white"/>
</svg>
