<svg width="37" height="20" viewBox="0 0 37 20" fill="none" xmlns="http://www.w3.org/2000/svg">
<path fill-rule="evenodd" clip-rule="evenodd" d="M33.9994 18.6233V13.5312H35.3764C36.2697 13.5312 37 12.8005 37 11.9075V7.70065C37 6.80763 36.2696 6.07702 35.3764 6.07702H33.9994V0.837252C33.9994 0.374755 33.6244 0 33.1625 0L0.837193 0C0.374695 0 -6.48499e-05 0.375006 -6.48499e-05 0.837252V18.6236C-6.48499e-05 19.0861 0.374943 19.4608 0.837193 19.4608L33.1625 19.4608C33.6247 19.4608 33.9994 19.0858 33.9994 18.6236V18.6233ZM1.67484 17.786V1.67457L32.3252 1.67457V17.7867L1.67484 17.786Z" fill="white"/>
<path fill-rule="evenodd" clip-rule="evenodd" d="M11.241 16.6305L3.27346 2.82959L3.27346 16.6305H11.241Z" fill="#7BC783"/>
<path fill-rule="evenodd" clip-rule="evenodd" d="M20.2166 16.6305L12.249 2.82959L4.8068 2.82959L12.775 16.6305H20.2166Z" fill="#7BC783"/>
</svg>
