<svg width="39" height="39" viewBox="0 0 39 39" fill="none" xmlns="http://www.w3.org/2000/svg">
<path d="M37.9425 5.06309C37.6835 5.00596 37.413 5.08516 37.2256 5.27286L33.1572 9.3633L33.1575 9.3636C32.6787 9.84541 32.0276 10.1162 31.3485 10.1162C30.6693 10.1162 30.0183 9.84541 29.5394 9.3636C29.0604 8.87939 28.7916 8.22591 28.7916 7.54491C28.7916 6.86361 29.0604 6.21013 29.5394 5.72621L33.5344 1.7095C33.7248 1.51817 33.8031 1.24191 33.7415 0.979247C33.6795 0.716284 33.4863 0.504098 33.2306 0.417651C32.164 0.0637072 31.0356 -0.0668684 29.9161 0.0340869C27.478 0.262291 25.2607 1.54118 23.8419 3.53669C22.4234 5.53251 21.9445 8.0473 22.5304 10.4249L18.2247 14.7541L12.2402 8.73767L12.1734 5.47718C12.1683 5.22056 12.0371 4.98269 11.8231 4.84122L4.67926 0.128117C4.37247 -0.0750009 3.96472 -0.0329845 3.70569 0.228469L0.227302 3.72558C-0.0326419 3.98763 -0.0746505 4.39569 0.127252 4.70519L4.81498 11.8874C4.95462 12.1017 5.19099 12.2335 5.4467 12.2393L8.68723 12.3097L14.6717 18.3265L10.58 22.4402C9.12186 22.0781 7.59279 22.1186 6.1558 22.5572C4.55716 23.0526 3.14199 24.012 2.0898 25.3135C1.03731 26.615 0.395917 28.1998 0.246345 29.8667C0.145692 30.9917 0.275362 32.1255 0.627495 33.1988C0.710916 33.4551 0.921896 33.6494 1.18395 33.712C1.44601 33.7746 1.72197 33.696 1.91179 33.505L5.90644 29.4883C6.38552 29.0068 7.03655 28.7359 7.71546 28.7359C8.39464 28.7359 9.04567 29.0065 9.52449 29.488C10.0036 29.9722 10.2723 30.6256 10.2723 31.3067C10.2723 31.9877 10.0036 32.6411 9.52449 33.1253L5.4561 37.2158H5.4564C5.26869 37.4044 5.19011 37.6758 5.24724 37.9355C5.30467 38.1954 5.49025 38.4082 5.73992 38.5004C6.64881 38.8317 7.60876 39.0003 8.57599 38.9985C8.77004 38.9985 8.96499 38.9919 9.16146 38.9786C11.6263 38.7869 13.8825 37.5211 15.3306 35.5174C16.7787 33.5135 17.2726 30.9742 16.6811 28.5737L18.3166 26.9291L19.5072 28.126H19.5069C19.8143 28.4183 20.297 28.4183 20.6042 28.126L20.8463 27.8824V27.8821C21.0533 27.6787 21.3861 27.6808 21.5907 27.8867C21.7954 28.0925 21.7957 28.425 21.591 28.6311L21.3486 28.875C21.0461 29.1806 21.0461 29.6727 21.3492 29.978L28.5665 37.2346C30.0884 38.7381 32.2958 39.3175 34.3602 38.7559C36.4244 38.1943 38.0336 36.5763 38.5843 34.5088C39.1347 32.4413 38.5432 30.2373 37.0313 28.7235L29.814 21.4669C29.6689 21.3209 29.4716 21.2387 29.2657 21.2387C29.0596 21.2387 28.8622 21.3209 28.7171 21.4669L28.4777 21.7078C28.2698 21.9079 27.9409 21.9079 27.733 21.7081C27.5265 21.5011 27.5265 21.1662 27.7324 20.9591L27.9718 20.7182H27.9721C28.2749 20.4129 28.2749 19.9205 27.9721 19.6153L26.783 18.4199L28.6307 16.5595V16.5592C30.1118 16.927 31.6657 16.8799 33.122 16.4228C35.3036 15.7343 37.1109 14.1868 38.1262 12.1365C39.1418 10.0866 39.2781 7.71113 38.5037 5.55839C38.4136 5.30812 38.202 5.12133 37.9427 5.06299L37.9425 5.06309ZM15.2653 27.7914C15.0619 27.996 14.9878 28.2959 15.0722 28.5718C15.784 30.8225 15.2801 33.2816 13.7398 35.0707C12.1998 36.8601 9.8434 37.7245 7.51145 37.3554L10.6214 34.228H10.6217C11.3912 33.4502 11.8231 32.4005 11.8231 31.3063C11.8231 30.2121 11.3912 29.1621 10.6217 28.3847C9.85242 27.6115 8.8066 27.1769 7.71572 27.1769C6.62516 27.1769 5.57939 27.6115 4.8101 28.3847L1.81169 31.3997C1.75789 30.9348 1.75124 30.4657 1.79174 29.9996C1.91415 28.6425 2.43706 27.3521 3.29396 26.293C4.15085 25.2337 5.3034 24.4526 6.6049 24.0497C7.90253 23.6546 9.28837 23.6577 10.5841 24.0582C10.8583 24.1422 11.1566 24.0672 11.3586 23.8635L15.7691 19.429L19.1245 22.8023L17.2172 24.7201L17.2169 24.7198C16.9141 25.0251 16.9141 25.5177 17.2169 25.823C17.2197 25.8258 15.2652 27.7914 15.2652 27.7914L15.2653 27.7914ZM28.1054 23.4225C28.5059 23.4235 28.898 23.3074 29.2335 23.0886L35.9351 29.8265C37.0614 30.9467 37.5041 32.5828 37.0973 34.1183C36.6902 35.6538 35.4948 36.8552 33.9614 37.2705C32.4284 37.6855 30.7898 37.2512 29.6636 36.131L22.9631 29.3943C23.3134 28.8571 23.3972 28.1886 23.1898 27.5816C22.9825 26.9746 22.5073 26.4968 21.9016 26.2864C21.2959 26.0758 20.627 26.1559 20.0878 26.5035L18.8627 25.2714L20.77 23.3536C21.0731 23.0483 21.0731 22.5559 20.77 22.2507L9.56405 10.9852C9.4229 10.8431 9.23247 10.7612 9.03238 10.757L5.88827 10.6887L1.7709 4.37994L4.35641 1.78019L10.6307 5.91992L10.696 9.08369C10.7002 9.28469 10.7815 9.47632 10.9233 9.61899L22.1292 20.8853C22.274 21.0316 22.4714 21.1138 22.6775 21.1138C22.8833 21.1138 23.0807 21.0316 23.2258 20.8853L25.1333 18.9674L26.3587 20.1998L26.359 20.1995C26.1012 20.6015 25.9881 21.0793 26.0386 21.5539C26.0891 22.0287 26.2997 22.4721 26.6359 22.8113C27.0237 23.2039 27.5529 23.4243 28.1051 23.4231L28.1054 23.4225ZM37.4318 8.89014C37.3315 10.2585 36.8234 11.5654 35.9731 12.6424C35.1232 13.7193 33.97 14.5172 32.6625 14.9329C31.3504 15.3455 29.9436 15.3482 28.6298 14.9405C28.355 14.8561 28.0558 14.9308 27.853 15.1351L25.6864 17.3168C25.5416 17.169 25.3436 17.0853 25.1369 17.0847C24.9301 17.0838 24.7315 17.166 24.5855 17.3126L22.678 19.2304L19.3223 15.8569L23.9469 11.2072C24.1498 11.0029 24.2241 10.7036 24.1404 10.4283C23.4479 8.22179 23.9197 5.81494 25.3944 4.03369C26.8689 2.25245 29.1452 1.33938 31.442 1.60804L28.4436 4.62308C27.6738 5.4005 27.2419 6.45053 27.2419 7.54473C27.2419 8.63894 27.6738 9.68865 28.4436 10.4664C29.2123 11.2405 30.2581 11.676 31.3492 11.676C32.4404 11.676 33.4862 11.2405 34.2549 10.4664L37.3654 7.33921V7.33891C37.4449 7.85184 37.4673 8.37207 37.4319 8.89011L37.4318 8.89014Z" fill="white"/>
</svg>
