<svg width="45" height="28" viewBox="0 0 45 28" fill="none" xmlns="http://www.w3.org/2000/svg">
<path d="M26.2906 19.0242C27.334 19.0242 27.334 17.3602 26.2906 17.3602C23.7867 17.3602 21.596 18.7122 20.4483 20.8964H8.45059L6.15529 17.9843L9.20238 1.9172H11.8865C13.0368 1.91719 13.0368 0 11.8865 0H6.5183C5.36799 1.61983e-06 5.36799 1.9172 6.5183 1.9172H7.4769L3.8509 20.5844L3.44253 20.5837C1.56471 20.4797 -0.000163496 21.9357 -0.000163496 23.8077C-0.000163496 25.5757 1.4604 27.0318 3.2339 27.0318C5.0074 27.0318 6.46796 25.5757 6.46796 23.8077C6.46796 22.7676 6.12976 21.7399 5.29505 21.1157L5.61597 19.9964C6.76366 21.4524 7.82424 22.8715 8.97163 24.3275C9.18025 24.5355 9.38886 24.7435 9.70206 24.7435H20.5524C21.074 24.7435 21.4915 24.3275 21.4915 23.8073C21.4915 21.2072 23.5779 19.0233 26.2904 19.0233L26.2906 19.0242ZM19.8222 22.5604V22.9763H10.1199L9.80694 22.5604H19.8222ZM26.2906 20.5844C24.4128 20.5844 22.9522 22.0404 22.9522 23.8084C22.9522 25.5764 24.4128 27.0325 26.2906 27.0325C28.0641 27.0325 29.5247 25.5764 29.5247 23.8084C29.5247 22.0404 28.0641 20.5844 26.2906 20.5844ZM26.2906 22.3524C27.1253 22.3524 27.7512 22.9763 27.7512 23.8084C27.7512 24.6406 27.1253 25.3685 26.2906 25.3685C25.3515 25.3685 24.7257 24.6403 24.7257 23.8084C24.7257 22.9763 25.3516 22.3524 26.2906 22.3524ZM3.23417 22.3524C4.06892 22.3524 4.79905 22.9763 4.79905 23.8084C4.79905 24.6406 4.06862 25.3685 3.23417 25.3685C2.39943 25.3685 1.77362 24.6403 1.77362 23.8084C1.77362 22.9763 2.39945 22.3524 3.23417 22.3524Z" fill="white"/>
<path d="M4.60128 15.5293L6.90192 18.4051V18.7885H4.02612L4.60128 15.5293Z" fill="#5F78FF"/>
<path d="M28.1827 17.4463L26.0077 17.332L26.0738 18.9801L28.8529 19.0788L28.9293 18.657L28.1827 17.4463Z" fill="white"/>
<path d="M4.02612 1.34204L5.94332 0H6.7102V1.9172H5.94332H4.02612V1.34204Z" fill="white"/>
<path d="M14.5708 1.34204L12.6536 0H11.8867V1.9172H12.6536H14.5708V1.34204Z" fill="white"/>
<rect x="26" y="4" width="18" height="1" fill="white"/>
<rect x="24" y="7" width="19" height="1" fill="white"/>
<rect x="28" y="10" width="17" height="1" fill="white"/>
</svg>
