<svg width="40" height="37" viewBox="0 0 40 37" fill="none" xmlns="http://www.w3.org/2000/svg">
<path d="M35.0437 25.358C36.4344 25.358 36.4344 23.1399 35.0437 23.1399C31.7061 23.1399 28.7861 24.9421 27.2563 27.8535H11.2642L8.20469 23.9719L12.2663 2.55549H15.8439C17.3772 2.55549 17.3772 0 15.8439 0H8.68856C7.15527 2.15913e-06 7.15527 2.55549 8.68856 2.55549H9.96631L5.13309 27.4376L4.58876 27.4367C2.08575 27.2981 -0.00012207 29.2389 -0.00012207 31.7341C-0.00012207 34.0907 1.94671 36.0315 4.31067 36.0315C6.67463 36.0315 8.62146 34.0907 8.62146 31.7341C8.62146 30.3477 8.17066 28.9779 7.05804 28.1458L7.48581 26.6538C9.0156 28.5946 10.4293 30.4862 11.9587 32.427C12.2368 32.7042 12.5148 32.9814 12.9323 32.9814H27.3951C28.0903 32.9814 28.6468 32.427 28.6468 31.7336C28.6468 28.2678 31.4278 25.3568 35.0435 25.3568L35.0437 25.358ZM26.4217 30.0715V30.6259H13.4892L13.0721 30.0715H26.4217ZM35.0437 27.4376C32.5407 27.4376 30.5939 29.3784 30.5939 31.7351C30.5939 34.0917 32.5407 36.0325 35.0437 36.0325C37.4077 36.0325 39.3545 34.0917 39.3545 31.7351C39.3545 29.3784 37.4077 27.4376 35.0437 27.4376ZM35.0437 29.7943C36.1564 29.7943 36.9905 30.6259 36.9905 31.7351C36.9905 32.8443 36.1563 33.8144 35.0437 33.8144C33.792 33.8144 32.9578 32.8439 32.9578 31.7351C32.9578 30.6259 33.792 29.7943 35.0437 29.7943ZM4.31104 29.7943C5.42369 29.7943 6.39691 30.6259 6.39691 31.7351C6.39691 32.8443 5.4233 33.8144 4.31104 33.8144C3.19838 33.8144 2.36422 32.8439 2.36422 31.7351C2.36422 30.6259 3.1984 29.7943 4.31104 29.7943Z" fill="white"/>
<path d="M6.1331 20.6995L9.1997 24.5327V25.0438H5.36646L6.1331 20.6995Z" fill="#5F78FF"/>
<path d="M37.5658 23.2549L34.6666 23.1025L34.7547 25.2993L38.459 25.431L38.561 24.8687L37.5658 23.2549Z" fill="white"/>
<path d="M5.36646 1.78885L7.92195 0H8.94415V2.55549H7.92195H5.36646V1.78885Z" fill="white"/>
<path d="M19.4219 1.78885L16.8664 0H15.8442V2.55549H16.8664H19.4219V1.78885Z" fill="white"/>
</svg>
