<svg width="67" height="68" viewBox="0 0 67 68" fill="none" xmlns="http://www.w3.org/2000/svg">
<path d="M52 32.5C52 43.8218 35 65.5 33 65.5C31 65.5 13 43.8218 13 32.5C13 21.1782 21.7304 12 32.5 12C43.2696 12 52 21.1782 52 32.5Z" fill="#5A93ED"/>
<path d="M32.7314 66C32.7314 66 52.2314 47.2174 52.2314 33.1304C52.2314 21.4604 43.501 12 32.7314 12C21.9619 12 13.2314 21.4604 13.2314 33.1304C13.2314 47.2174 32.7314 66 32.7314 66Z" stroke="#5A93ED" stroke-width="2"/>
<path d="M42.9822 39.6693L41.5703 39.9078L41.8001 40.0347C39.9166 40.8936 38.6737 42.9159 38.6737 45.2055V45.5133H25.8466H25.4379L25.3566 45.9138C25.0501 47.422 23.8416 48.5 22.4675 48.5C20.8793 48.5 19.5103 47.0674 19.5103 45.2055C19.5103 43.3436 20.8792 41.911 22.4675 41.911C23.8541 41.911 25.0601 42.99 25.356 44.4941L25.4353 44.8976L25.8466 44.8976L37.7458 44.8979L38.1947 44.8979L38.243 44.4516C38.5141 41.9444 40.1143 39.9007 42.2658 39.2325L42.6734 39.1059L42.6123 38.6834L39.6459 18.1806L39.6454 18.1771C39.5588 17.6072 39.1035 17.1157 38.4707 17.1157H34.4781C34.3845 17.1157 34.2421 17.0294 34.2421 16.8079C34.2421 16.5915 34.3909 16.5 34.4781 16.5C34.4781 16.5 34.4781 16.5 34.4781 16.5L38.4707 16.5003H38.4707C39.2612 16.5003 39.9696 17.1175 40.1059 18.055L43.2256 39.6282L42.9822 39.6693ZM19.9822 45.1933C19.9822 46.6241 21.0555 47.8721 22.4674 47.8721C23.8792 47.8721 24.9525 46.6241 24.9525 45.1933C24.9525 43.7624 23.8792 42.5145 22.4674 42.5145C21.0555 42.5145 19.9822 43.7624 19.9822 45.1933Z" fill="black" stroke="#150050"/>
<path d="M40.8555 45.1932C40.8555 43.3313 42.2245 41.8987 43.8127 41.8987C45.4007 41.8987 46.7699 43.3313 46.7699 45.1932C46.7699 47.0551 45.4009 48.4877 43.8127 48.4877C42.2245 48.4877 40.8555 47.0551 40.8555 45.1932ZM41.3276 45.1932C41.3276 46.624 42.4009 47.872 43.8127 47.872C45.2245 47.872 46.2978 46.624 46.2978 45.1932C46.2978 43.7623 45.2245 42.5144 43.8127 42.5144C42.4009 42.5144 41.3276 43.7623 41.3276 45.1932Z" fill="#4D628B" stroke="#150050"/>
<path d="M22.4625 42.6068L22.6947 42.164L22.4625 42.0422L22.2303 42.164L22.4625 42.6068ZM22.4625 42.6068C22.2303 42.164 22.2302 42.164 22.2301 42.1641L22.2298 42.1642L22.2291 42.1646L22.2271 42.1657L22.221 42.1689L22.2006 42.1799C22.1835 42.1893 22.1594 42.2026 22.1294 42.2197C22.0694 42.254 21.9852 42.3035 21.8849 42.3669C21.6853 42.4929 21.4167 42.6766 21.1456 42.9058C20.8764 43.1334 20.5911 43.4173 20.37 43.7462C20.1494 44.0745 19.9743 44.4755 19.9743 44.9263C19.9743 46.4043 21.0222 47.7458 22.4625 47.7458C23.9027 47.7458 24.9506 46.4043 24.9506 44.9263C24.9506 44.4755 24.7756 44.0745 24.555 43.7462C24.3339 43.4173 24.0486 43.1334 23.7794 42.9058C23.5083 42.6766 23.2397 42.4929 23.0401 42.3669C22.9398 42.3035 22.8556 42.254 22.7956 42.2197C22.7656 42.2026 22.7415 42.1893 22.7243 42.1799L22.704 42.1689L22.6979 42.1657L22.6959 42.1646L22.6952 42.1642L22.6949 42.1641C22.6948 42.164 22.6947 42.164 22.4625 42.6068ZM19.5 44.9263C19.5 42.8989 20.8981 41.3867 22.4625 41.3867C24.0267 41.3867 25.425 42.899 25.425 44.9263C25.425 46.9536 24.0269 48.4659 22.4625 48.4659C20.8981 48.4659 19.5 46.9536 19.5 44.9263Z" fill="#4D628B" stroke="#150050"/>
</svg>
