<svg width="247" height="71" viewBox="0 0 247 71" fill="none" xmlns="http://www.w3.org/2000/svg">
<path d="M0.957031 22.3906C0.957031 21.2318 1.17839 20.1445 1.62109 19.1289C2.0638 18.1133 2.66276 17.2279 3.41797 16.4727C4.1862 15.7044 5.07812 15.099 6.09375 14.6562C7.10938 14.2135 8.19661 13.9922 9.35547 13.9922H22.207V19.5977H9.35547C8.96484 19.5977 8.60026 19.6693 8.26172 19.8125C7.92318 19.9557 7.6237 20.1576 7.36328 20.418C7.11589 20.6654 6.92057 20.9583 6.77734 21.2969C6.63411 21.6354 6.5625 22 6.5625 22.3906C6.5625 22.7812 6.63411 23.1523 6.77734 23.5039C6.92057 23.8424 7.11589 24.1419 7.36328 24.4023C7.6237 24.6497 7.92318 24.8451 8.26172 24.9883C8.60026 25.1315 8.96484 25.2031 9.35547 25.2031H14.9609C16.1198 25.2031 17.207 25.4245 18.2227 25.8672C19.2513 26.2969 20.1432 26.8958 20.8984 27.6641C21.6667 28.4193 22.2656 29.3112 22.6953 30.3398C23.138 31.3555 23.3594 32.4427 23.3594 33.6016C23.3594 34.7604 23.138 35.8477 22.6953 36.8633C22.2656 37.8789 21.6667 38.7708 20.8984 39.5391C20.1432 40.2943 19.2513 40.8932 18.2227 41.3359C17.207 41.7786 16.1198 42 14.9609 42H2.51953V36.3945H14.9609C15.3516 36.3945 15.7161 36.3229 16.0547 36.1797C16.3932 36.0365 16.6862 35.8411 16.9336 35.5938C17.194 35.3333 17.3958 35.0339 17.5391 34.6953C17.6823 34.3568 17.7539 33.9922 17.7539 33.6016C17.7539 33.2109 17.6823 32.8464 17.5391 32.5078C17.3958 32.1693 17.194 31.8763 16.9336 31.6289C16.6862 31.3685 16.3932 31.1667 16.0547 31.0234C15.7161 30.8802 15.3516 30.8086 14.9609 30.8086H9.35547C8.19661 30.8086 7.10938 30.5872 6.09375 30.1445C5.07812 29.7018 4.1862 29.1029 3.41797 28.3477C2.66276 27.5794 2.0638 26.6875 1.62109 25.6719C1.17839 24.6432 0.957031 23.5495 0.957031 22.3906ZM31.6602 49.9688H26.2891V21.082H27.5781L29.707 23.6016C30.1888 23.1458 30.7161 22.7161 31.2891 22.3125C31.862 21.9089 32.4544 21.5638 33.0664 21.2773C33.6914 20.9779 34.3359 20.7435 35 20.5742C35.6641 20.4049 36.3346 20.3203 37.0117 20.3203C38.4831 20.3203 39.8633 20.5872 41.1523 21.1211C42.4544 21.6419 43.5872 22.3841 44.5508 23.3477C45.5273 24.3112 46.2956 25.4766 46.8555 26.8438C47.4154 28.1979 47.6953 29.7018 47.6953 31.3555C47.6953 33.0742 47.4154 34.6237 46.8555 36.0039C46.2956 37.3711 45.5273 38.5365 44.5508 39.5C43.5872 40.4505 42.4544 41.1797 41.1523 41.6875C39.8633 42.1953 38.4831 42.4492 37.0117 42.4492C36.543 42.4492 36.0742 42.3971 35.6055 42.293C35.1497 42.1888 34.694 42.0521 34.2383 41.8828C33.7956 41.7005 33.3529 41.4987 32.9102 41.2773C32.4805 41.056 32.0638 40.8281 31.6602 40.5938V49.9688ZM42.3438 31.3555C42.3438 30.4701 42.2005 29.6758 41.9141 28.9727C41.6406 28.2695 41.263 27.6771 40.7812 27.1953C40.2995 26.7005 39.7331 26.3229 39.082 26.0625C38.431 25.8021 37.7409 25.6719 37.0117 25.6719C36.2826 25.6719 35.5924 25.8021 34.9414 26.0625C34.3034 26.3229 33.7435 26.7005 33.2617 27.1953C32.7799 27.6771 32.3958 28.2695 32.1094 28.9727C31.8359 29.6758 31.6992 30.4701 31.6992 31.3555C31.6992 32.2018 31.8359 32.9766 32.1094 33.6797C32.3958 34.3828 32.7799 34.9818 33.2617 35.4766C33.7435 35.9714 34.3034 36.3555 34.9414 36.6289C35.5924 36.9023 36.2826 37.0391 37.0117 37.0391C37.7409 37.0391 38.431 36.9023 39.082 36.6289C39.7331 36.3555 40.2995 35.9714 40.7812 35.4766C41.263 34.9818 41.6406 34.3828 41.9141 33.6797C42.2005 32.9766 42.3438 32.2018 42.3438 31.3555ZM70.918 42H69.6289L67.5586 39.1289C67.0508 39.5846 66.5104 40.0143 65.9375 40.418C65.3776 40.8086 64.7852 41.1536 64.1602 41.4531C63.5352 41.7396 62.8906 41.9674 62.2266 42.1367C61.5755 42.306 60.9115 42.3906 60.2344 42.3906C58.763 42.3906 57.3763 42.1432 56.0742 41.6484C54.7852 41.1536 53.6523 40.4375 52.6758 39.5C51.7122 38.5495 50.9505 37.3906 50.3906 36.0234C49.8307 34.6562 49.5508 33.1003 49.5508 31.3555C49.5508 29.7279 49.8307 28.237 50.3906 26.8828C50.9505 25.5156 51.7122 24.3438 52.6758 23.3672C53.6523 22.3906 54.7852 21.6354 56.0742 21.1016C57.3763 20.5547 58.763 20.2812 60.2344 20.2812C60.9115 20.2812 61.582 20.3659 62.2461 20.5352C62.9102 20.7044 63.5547 20.9388 64.1797 21.2383C64.8047 21.5378 65.3971 21.8893 65.957 22.293C66.5299 22.6966 67.0638 23.1328 67.5586 23.6016L69.6289 21.1211H70.918V42ZM65.5469 31.3555C65.5469 30.6263 65.4036 29.9232 65.1172 29.2461C64.8438 28.556 64.4661 27.9505 63.9844 27.4297C63.5026 26.8958 62.9362 26.4727 62.2852 26.1602C61.6471 25.8346 60.9635 25.6719 60.2344 25.6719C59.5052 25.6719 58.8151 25.7956 58.1641 26.043C57.526 26.2904 56.9661 26.6549 56.4844 27.1367C56.0156 27.6185 55.6445 28.2174 55.3711 28.9336C55.0977 29.6367 54.9609 30.444 54.9609 31.3555C54.9609 32.2669 55.0977 33.0807 55.3711 33.7969C55.6445 34.5 56.0156 35.0924 56.4844 35.5742C56.9661 36.056 57.526 36.4206 58.1641 36.668C58.8151 36.9154 59.5052 37.0391 60.2344 37.0391C60.9635 37.0391 61.6471 36.8828 62.2852 36.5703C62.9362 36.2448 63.5026 35.8216 63.9844 35.3008C64.4661 34.7669 64.8438 34.1615 65.1172 33.4844C65.4036 32.7943 65.5469 32.0846 65.5469 31.3555ZM80.332 42H75V21.082H76.2891L78.0469 23.5625C78.9062 22.7812 79.8828 22.1823 80.9766 21.7656C82.0703 21.3359 83.2031 21.1211 84.375 21.1211H89.082V26.4336H84.375C83.8151 26.4336 83.2878 26.5378 82.793 26.7461C82.2982 26.9544 81.8685 27.2409 81.5039 27.6055C81.1393 27.9701 80.8529 28.3997 80.6445 28.8945C80.4362 29.3893 80.332 29.9167 80.332 30.4766V42ZM96.9336 42H91.5625V12.7617H96.9336V31.1992L104.883 21.1211H111.016L104.082 29.832L111.016 42H104.883L100.645 34.4023L96.9336 39.3242V42ZM119.297 19.5977V30.8086H124.902C125.671 30.8086 126.393 30.6654 127.07 30.3789C127.747 30.0794 128.34 29.6758 128.848 29.168C129.355 28.6602 129.753 28.0677 130.039 27.3906C130.339 26.7005 130.488 25.9714 130.488 25.2031C130.488 24.4349 130.339 23.7122 130.039 23.0352C129.753 22.3451 129.355 21.7461 128.848 21.2383C128.34 20.7305 127.747 20.3333 127.07 20.0469C126.393 19.7474 125.671 19.5977 124.902 19.5977H119.297ZM119.297 42H113.691V13.9922H124.902C125.931 13.9922 126.921 14.1289 127.871 14.4023C128.822 14.6628 129.707 15.0404 130.527 15.5352C131.361 16.0169 132.116 16.6029 132.793 17.293C133.483 17.9701 134.069 18.7253 134.551 19.5586C135.046 20.3919 135.423 21.2839 135.684 22.2344C135.957 23.1849 136.094 24.1745 136.094 25.2031C136.094 26.1667 135.97 27.1042 135.723 28.0156C135.488 28.9271 135.143 29.793 134.688 30.6133C134.245 31.4336 133.698 32.1888 133.047 32.8789C132.396 33.569 131.667 34.168 130.859 34.6758L133.965 42H128.008L125.566 36.3555L119.297 36.3945V42ZM147.305 36.8828C147.513 36.9479 147.721 36.9935 147.93 37.0195C148.138 37.0326 148.346 37.0391 148.555 37.0391C149.076 37.0391 149.577 36.9674 150.059 36.8242C150.54 36.681 150.99 36.4792 151.406 36.2188C151.836 35.9453 152.214 35.6198 152.539 35.2422C152.878 34.8516 153.151 34.4219 153.359 33.9531L157.266 37.8789C156.771 38.582 156.198 39.2135 155.547 39.7734C154.909 40.3333 154.212 40.8086 153.457 41.1992C152.715 41.5898 151.927 41.8828 151.094 42.0781C150.273 42.2865 149.427 42.3906 148.555 42.3906C147.083 42.3906 145.697 42.1172 144.395 41.5703C143.105 41.0234 141.973 40.2617 140.996 39.2852C140.033 38.3086 139.271 37.1497 138.711 35.8086C138.151 34.4544 137.871 32.9701 137.871 31.3555C137.871 29.7018 138.151 28.1914 138.711 26.8242C139.271 25.457 140.033 24.2917 140.996 23.3281C141.973 22.3646 143.105 21.6159 144.395 21.082C145.697 20.5482 147.083 20.2812 148.555 20.2812C149.427 20.2812 150.28 20.3854 151.113 20.5938C151.947 20.8021 152.734 21.1016 153.477 21.4922C154.232 21.8828 154.935 22.3646 155.586 22.9375C156.237 23.4974 156.81 24.1289 157.305 24.832L147.305 36.8828ZM150.039 25.8867C149.792 25.7956 149.544 25.737 149.297 25.7109C149.062 25.6849 148.815 25.6719 148.555 25.6719C147.826 25.6719 147.135 25.8086 146.484 26.082C145.846 26.3424 145.286 26.7201 144.805 27.2148C144.336 27.7096 143.965 28.3086 143.691 29.0117C143.418 29.7018 143.281 30.4831 143.281 31.3555C143.281 31.5508 143.288 31.7721 143.301 32.0195C143.327 32.2669 143.359 32.5208 143.398 32.7812C143.451 33.0286 143.509 33.2695 143.574 33.5039C143.639 33.7383 143.724 33.9466 143.828 34.1289L150.039 25.8867ZM165.332 42H160V21.082H161.289L163.047 23.1133C163.906 22.332 164.876 21.7331 165.957 21.3164C167.051 20.8867 168.19 20.6719 169.375 20.6719C170.651 20.6719 171.855 20.9193 172.988 21.4141C174.121 21.8958 175.111 22.5664 175.957 23.4258C176.803 24.2721 177.467 25.2682 177.949 26.4141C178.444 27.5469 178.691 28.7578 178.691 30.0469V42H173.359V30.0469C173.359 29.5 173.255 28.9857 173.047 28.5039C172.839 28.0091 172.552 27.5794 172.188 27.2148C171.823 26.8503 171.4 26.5638 170.918 26.3555C170.436 26.1471 169.922 26.043 169.375 26.043C168.815 26.043 168.288 26.1471 167.793 26.3555C167.298 26.5638 166.868 26.8503 166.504 27.2148C166.139 27.5794 165.853 28.0091 165.645 28.5039C165.436 28.9857 165.332 29.5 165.332 30.0469V42ZM213.965 42H212.676L210.605 39.1289C210.098 39.5846 209.557 40.0143 208.984 40.418C208.424 40.8086 207.832 41.1536 207.207 41.4531C206.582 41.7396 205.938 41.9674 205.273 42.1367C204.622 42.306 203.958 42.3906 203.281 42.3906C201.81 42.3906 200.423 42.1432 199.121 41.6484C197.832 41.1536 196.699 40.4375 195.723 39.5C194.759 38.5495 193.997 37.3906 193.438 36.0234C192.878 34.6562 192.598 33.1003 192.598 31.3555C192.598 29.7279 192.878 28.237 193.438 26.8828C193.997 25.5156 194.759 24.3438 195.723 23.3672C196.699 22.3906 197.832 21.6354 199.121 21.1016C200.423 20.5547 201.81 20.2812 203.281 20.2812C203.958 20.2812 204.629 20.3659 205.293 20.5352C205.957 20.7044 206.602 20.9388 207.227 21.2383C207.852 21.5378 208.444 21.8893 209.004 22.293C209.577 22.6966 210.111 23.1328 210.605 23.6016L212.676 21.1211H213.965V42ZM208.594 31.3555C208.594 30.6263 208.451 29.9232 208.164 29.2461C207.891 28.556 207.513 27.9505 207.031 27.4297C206.549 26.8958 205.983 26.4727 205.332 26.1602C204.694 25.8346 204.01 25.6719 203.281 25.6719C202.552 25.6719 201.862 25.7956 201.211 26.043C200.573 26.2904 200.013 26.6549 199.531 27.1367C199.062 27.6185 198.691 28.2174 198.418 28.9336C198.145 29.6367 198.008 30.444 198.008 31.3555C198.008 32.2669 198.145 33.0807 198.418 33.7969C198.691 34.5 199.062 35.0924 199.531 35.5742C200.013 36.056 200.573 36.4206 201.211 36.668C201.862 36.9154 202.552 37.0391 203.281 37.0391C204.01 37.0391 204.694 36.8828 205.332 36.5703C205.983 36.2448 206.549 35.8216 207.031 35.3008C207.513 34.7669 207.891 34.1615 208.164 33.4844C208.451 32.7943 208.594 32.0846 208.594 31.3555ZM223.418 42H218.047V12.7617H223.418V42ZM238.984 42H226.797V36.6875H238.984C239.349 36.6875 239.661 36.5573 239.922 36.2969C240.182 36.0365 240.312 35.724 240.312 35.3594C240.312 34.9818 240.182 34.7344 239.922 34.6172C239.661 34.5 239.349 34.4414 238.984 34.4414H233.438C232.513 34.4414 231.647 34.2656 230.84 33.9141C230.033 33.5625 229.329 33.0872 228.73 32.4883C228.132 31.8763 227.656 31.1667 227.305 30.3594C226.966 29.5521 226.797 28.6862 226.797 27.7617C226.797 26.8372 226.966 25.9714 227.305 25.1641C227.656 24.3568 228.132 23.6536 228.73 23.0547C229.329 22.4557 230.033 21.987 230.84 21.6484C231.647 21.2969 232.513 21.1211 233.438 21.1211H244.238V26.4336H233.438C233.073 26.4336 232.76 26.5638 232.5 26.8242C232.24 27.0846 232.109 27.3971 232.109 27.7617C232.109 28.1393 232.24 28.4648 232.5 28.7383C232.76 28.9987 233.073 29.1289 233.438 29.1289H238.984C239.896 29.1289 240.755 29.2852 241.562 29.5977C242.37 29.8971 243.073 30.3203 243.672 30.8672C244.271 31.4141 244.746 32.0716 245.098 32.8398C245.449 33.6081 245.625 34.4479 245.625 35.3594C245.625 36.2839 245.449 37.1497 245.098 37.957C244.746 38.7513 244.271 39.4544 243.672 40.0664C243.073 40.6654 242.37 41.1406 241.562 41.4922C240.755 41.8307 239.896 42 238.984 42Z" fill="white"/>
<path fill-rule="evenodd" clip-rule="evenodd" d="M238.566 45.2749C241.287 45.2749 241.287 49.6146 238.566 49.6146L238.565 49.6123C231.491 49.6123 226.05 55.3078 226.05 62.0889C226.05 63.4456 224.961 64.5304 223.601 64.5304H195.303C194.486 64.5304 193.942 63.988 193.398 63.4456C191.906 61.5517 190.47 59.6818 189.034 57.8119C187.59 55.9326 186.147 54.0534 184.647 52.15L183.81 55.0692C185.987 56.6972 186.869 59.3773 186.869 62.09C186.869 66.7009 183.06 70.4982 178.434 70.4982C173.809 70.4982 170 66.7009 170 62.09C170 57.2079 174.081 53.4106 178.978 53.6818L180.043 53.6836L180.935 49.0952H187.781L192.039 54.4972H223.329C226.322 48.8009 232.035 45.2749 238.566 45.2749ZM186.257 45.8276L182.507 41L189.5 5H187C184 5 184 4.22448e-06 187 0H201C204 0 204 4.99999 201 5H194L186.257 45.8276ZM221.696 59.9217V58.8369H195.577L196.393 59.9217H221.696ZM229.859 62.0918C229.859 57.4809 233.668 53.6836 238.566 53.6836C243.191 53.6836 247 57.4809 247 62.0918C247 66.7027 243.191 70.5 238.566 70.5C233.668 70.5 229.859 66.7027 229.859 62.0918ZM242.375 62.0918C242.375 59.9216 240.743 58.2945 238.566 58.2945C236.117 58.2945 234.484 59.9216 234.484 62.0918C234.484 64.2613 236.117 66.1603 238.566 66.1603C240.743 66.1603 242.375 64.262 242.375 62.0918ZM182.516 62.0918C182.516 59.9216 180.612 58.2945 178.435 58.2945C176.258 58.2945 174.626 59.9216 174.626 62.0918C174.626 64.2613 176.258 66.1603 178.435 66.1603C180.611 66.1603 182.516 64.262 182.516 62.0918Z" fill="white"/>
<path d="M243.5 45.4999L237.827 45.2018L238 49.5L245.248 49.7576L245.447 48.6574L243.5 45.4999Z" fill="white"/>
<path d="M180.5 3.5L185.5 0H187.5V5H185.5H180.5V3.5Z" fill="white"/>
<path d="M208 3.5L203 0H201V5H203H208V3.5Z" fill="white"/>
<path d="M1.35889 58.6465C1.35889 58.2119 1.44189 57.8042 1.60791 57.4233C1.77393 57.0425 1.99854 56.7104 2.28174 56.4272C2.56982 56.1392 2.9043 55.9121 3.28516 55.7461C3.66602 55.5801 4.07373 55.4971 4.5083 55.4971H9.32764V57.5991H4.5083C4.36182 57.5991 4.2251 57.626 4.09814 57.6797C3.97119 57.7334 3.85889 57.8091 3.76123 57.9067C3.66846 57.9995 3.59521 58.1094 3.5415 58.2363C3.48779 58.3633 3.46094 58.5 3.46094 58.6465C3.46094 58.793 3.48779 58.9321 3.5415 59.064C3.59521 59.1909 3.66846 59.3032 3.76123 59.4009C3.85889 59.4937 3.97119 59.5669 4.09814 59.6206C4.2251 59.6743 4.36182 59.7012 4.5083 59.7012H6.61035C7.04492 59.7012 7.45264 59.7842 7.8335 59.9502C8.21924 60.1113 8.55371 60.3359 8.83691 60.624C9.125 60.9072 9.34961 61.2417 9.51074 61.6274C9.67676 62.0083 9.75977 62.416 9.75977 62.8506C9.75977 63.2852 9.67676 63.6929 9.51074 64.0737C9.34961 64.4546 9.125 64.7891 8.83691 65.0771C8.55371 65.3604 8.21924 65.585 7.8335 65.751C7.45264 65.917 7.04492 66 6.61035 66H1.94482V63.8979H6.61035C6.75684 63.8979 6.89355 63.8711 7.02051 63.8174C7.14746 63.7637 7.25732 63.6904 7.3501 63.5977C7.44775 63.5 7.52344 63.3877 7.57715 63.2607C7.63086 63.1338 7.65771 62.9971 7.65771 62.8506C7.65771 62.7041 7.63086 62.5674 7.57715 62.4404C7.52344 62.3135 7.44775 62.2036 7.3501 62.1108C7.25732 62.0132 7.14746 61.9375 7.02051 61.8838C6.89355 61.8301 6.75684 61.8032 6.61035 61.8032H4.5083C4.07373 61.8032 3.66602 61.7202 3.28516 61.5542C2.9043 61.3882 2.56982 61.1636 2.28174 60.8804C1.99854 60.5923 1.77393 60.2578 1.60791 59.877C1.44189 59.4912 1.35889 59.0811 1.35889 58.6465ZM18.5122 62.0083C18.5122 62.5942 18.4072 63.1411 18.1973 63.6489C17.9873 64.1519 17.7017 64.5889 17.3403 64.96C16.979 65.3262 16.5542 65.6167 16.0659 65.8315C15.5825 66.0415 15.0625 66.1465 14.5059 66.1465C13.9541 66.1465 13.4341 66.0415 12.9458 65.8315C12.4624 65.6167 12.0376 65.3262 11.6714 64.96C11.3101 64.5889 11.0244 64.1519 10.8145 63.6489C10.6045 63.1411 10.4995 62.5942 10.4995 62.0083C10.4995 61.4126 10.6045 60.8608 10.8145 60.353C11.0244 59.8452 11.3101 59.4082 11.6714 59.042C12.0376 58.6709 12.4624 58.3804 12.9458 58.1704C13.4341 57.9604 13.9541 57.8555 14.5059 57.8555C15.0625 57.8555 15.5825 57.9556 16.0659 58.1558C16.5542 58.3511 16.979 58.6318 17.3403 58.998C17.7017 59.3594 17.9873 59.7964 18.1973 60.3091C18.4072 60.8169 18.5122 61.3833 18.5122 62.0083ZM16.498 62.0083C16.498 61.686 16.4443 61.3955 16.3369 61.1367C16.2344 60.873 16.0928 60.6484 15.9121 60.4629C15.7314 60.2725 15.519 60.1284 15.2749 60.0308C15.0356 59.9282 14.7793 59.877 14.5059 59.877C14.2324 59.877 13.9736 59.9282 13.7295 60.0308C13.4902 60.1284 13.2803 60.2725 13.0996 60.4629C12.9238 60.6484 12.7847 60.873 12.6821 61.1367C12.5796 61.3955 12.5283 61.686 12.5283 62.0083C12.5283 62.311 12.5796 62.5918 12.6821 62.8506C12.7847 63.1094 12.9238 63.334 13.0996 63.5244C13.2803 63.7148 13.4902 63.8662 13.7295 63.9785C13.9736 64.0859 14.2324 64.1396 14.5059 64.1396C14.7793 64.1396 15.0356 64.0884 15.2749 63.9858C15.519 63.8833 15.7314 63.7393 15.9121 63.5537C16.0928 63.3682 16.2344 63.1436 16.3369 62.8799C16.4443 62.6162 16.498 62.3257 16.498 62.0083ZM22.0718 66H20.0723V60.1479H19.0981V58.1558H20.0723V57.7822C20.0723 57.2988 20.1626 56.8447 20.3433 56.4199C20.5288 55.9951 20.7803 55.6265 21.0977 55.314C21.4199 54.9966 21.7935 54.7476 22.2183 54.5669C22.6431 54.3813 23.0972 54.2886 23.5806 54.2886H25.082V56.2808H23.5806C23.3657 56.2808 23.1655 56.3198 22.98 56.3979C22.7993 56.4712 22.6406 56.5762 22.5039 56.7129C22.3721 56.8447 22.2671 57.0034 22.189 57.189C22.1108 57.3696 22.0718 57.5674 22.0718 57.7822V58.1558H24.5254V60.1479H22.0718V66ZM29.4106 66C28.9272 66 28.4731 65.9097 28.0483 65.729C27.6235 65.5435 27.25 65.292 26.9277 64.9746C26.6104 64.6523 26.3589 64.2788 26.1733 63.854C25.9927 63.4292 25.9023 62.9751 25.9023 62.4917V60.1626H24.9282V58.1704H25.9023V55.0356H27.8945V58.1704H30.9268V60.1626H27.8945V62.4917C27.8945 62.7017 27.9336 62.8994 28.0117 63.085C28.0898 63.2656 28.1973 63.4243 28.334 63.561C28.4707 63.6978 28.6318 63.8076 28.8174 63.8906C29.0029 63.9688 29.2007 64.0078 29.4106 64.0078H30.9268V66H29.4106ZM41.957 63.1655C41.957 63.5757 41.8789 63.9639 41.7227 64.3301C41.5664 64.6914 41.3516 65.0063 41.0781 65.2749C40.8096 65.5435 40.4922 65.7559 40.126 65.9121C39.7646 66.0684 39.3765 66.1465 38.9614 66.1465C38.5903 66.1465 38.2339 66.083 37.8921 65.9561C37.5503 65.8242 37.2402 65.6338 36.9619 65.3848C36.6885 65.6338 36.3809 65.8242 36.0391 65.9561C35.7021 66.083 35.3457 66.1465 34.9697 66.1465C34.5547 66.1465 34.1665 66.0684 33.8052 65.9121C33.4438 65.7559 33.1265 65.5435 32.853 65.2749C32.5845 65.0063 32.3721 64.6914 32.2158 64.3301C32.0596 63.9639 31.9814 63.5757 31.9814 63.1655V58.1704H33.981V63.1655C33.981 63.3022 34.0054 63.4316 34.0542 63.5537C34.1079 63.6709 34.1787 63.7759 34.2666 63.8687C34.3594 63.9565 34.4644 64.0273 34.5815 64.0811C34.7036 64.1299 34.833 64.1543 34.9697 64.1543C35.1064 64.1543 35.2358 64.1299 35.3579 64.0811C35.48 64.0273 35.5874 63.9565 35.6802 63.8687C35.7729 63.7759 35.8438 63.6709 35.8926 63.5537C35.9463 63.4316 35.9731 63.3022 35.9731 63.1655V58.1704H37.9653V63.1655C37.9653 63.3022 37.9922 63.4316 38.0459 63.5537C38.0996 63.6709 38.1704 63.7759 38.2583 63.8687C38.3511 63.9565 38.4561 64.0273 38.5732 64.0811C38.6953 64.1299 38.8247 64.1543 38.9614 64.1543C39.0981 64.1543 39.2275 64.1299 39.3496 64.0811C39.4717 64.0273 39.5767 63.9565 39.6646 63.8687C39.7573 63.7759 39.8306 63.6709 39.8843 63.5537C39.938 63.4316 39.9648 63.3022 39.9648 63.1655V58.1704H41.957V63.1655ZM51.0024 66H50.519L49.7427 64.9233C49.5522 65.0942 49.3496 65.2554 49.1348 65.4067C48.9248 65.5532 48.7026 65.6826 48.4683 65.7949C48.2339 65.9023 47.9922 65.9878 47.7432 66.0513C47.499 66.1147 47.25 66.1465 46.9961 66.1465C46.4443 66.1465 45.9243 66.0537 45.436 65.8682C44.9526 65.6826 44.5278 65.4141 44.1616 65.0625C43.8003 64.7061 43.5146 64.2715 43.3047 63.7588C43.0947 63.2461 42.9897 62.6626 42.9897 62.0083C42.9897 61.3979 43.0947 60.8389 43.3047 60.3311C43.5146 59.8184 43.8003 59.3789 44.1616 59.0127C44.5278 58.6465 44.9526 58.3633 45.436 58.1631C45.9243 57.958 46.4443 57.8555 46.9961 57.8555C47.25 57.8555 47.5015 57.8872 47.7505 57.9507C47.9995 58.0142 48.2412 58.1021 48.4756 58.2144C48.71 58.3267 48.9321 58.4585 49.1421 58.6099C49.3569 58.7612 49.5571 58.9248 49.7427 59.1006L50.519 58.1704H51.0024V66ZM48.9883 62.0083C48.9883 61.7349 48.9346 61.4712 48.8271 61.2173C48.7246 60.9585 48.583 60.7314 48.4023 60.5361C48.2217 60.3359 48.0093 60.1772 47.7651 60.0601C47.5259 59.938 47.2695 59.877 46.9961 59.877C46.7227 59.877 46.4639 59.9233 46.2197 60.0161C45.9805 60.1089 45.7705 60.2456 45.5898 60.4263C45.4141 60.6069 45.2749 60.8315 45.1724 61.1001C45.0698 61.3638 45.0186 61.6665 45.0186 62.0083C45.0186 62.3501 45.0698 62.6553 45.1724 62.9238C45.2749 63.1875 45.4141 63.4097 45.5898 63.5903C45.7705 63.771 45.9805 63.9077 46.2197 64.0005C46.4639 64.0933 46.7227 64.1396 46.9961 64.1396C47.2695 64.1396 47.5259 64.0811 47.7651 63.9639C48.0093 63.8418 48.2217 63.6831 48.4023 63.4878C48.583 63.2876 48.7246 63.0605 48.8271 62.8066C48.9346 62.5479 48.9883 62.2817 48.9883 62.0083ZM54.5327 66H52.5332V58.1558H53.0166L53.6758 59.0859C53.998 58.793 54.3643 58.5684 54.7744 58.4121C55.1846 58.251 55.6094 58.1704 56.0488 58.1704H57.814V60.1626H56.0488C55.8389 60.1626 55.6411 60.2017 55.4556 60.2798C55.27 60.3579 55.1089 60.4653 54.9722 60.6021C54.8354 60.7388 54.728 60.8999 54.6499 61.0854C54.5718 61.271 54.5327 61.4688 54.5327 61.6787V66ZM61.7178 64.0811C61.7959 64.1055 61.874 64.1226 61.9521 64.1323C62.0303 64.1372 62.1084 64.1396 62.1865 64.1396C62.3818 64.1396 62.5698 64.1128 62.7505 64.0591C62.9312 64.0054 63.0996 63.9297 63.2559 63.832C63.417 63.7295 63.5586 63.6074 63.6807 63.4658C63.8076 63.3193 63.9102 63.1582 63.9883 62.9824L65.4531 64.4546C65.2676 64.7183 65.0527 64.9551 64.8086 65.165C64.5693 65.375 64.3081 65.5532 64.0249 65.6997C63.7466 65.8462 63.4512 65.9561 63.1387 66.0293C62.8311 66.1074 62.5137 66.1465 62.1865 66.1465C61.6348 66.1465 61.1147 66.0439 60.6265 65.8389C60.1431 65.6338 59.7183 65.3481 59.3521 64.9819C58.9907 64.6157 58.7051 64.1812 58.4951 63.6782C58.2852 63.1704 58.1802 62.6138 58.1802 62.0083C58.1802 61.3882 58.2852 60.8218 58.4951 60.3091C58.7051 59.7964 58.9907 59.3594 59.3521 58.998C59.7183 58.6367 60.1431 58.356 60.6265 58.1558C61.1147 57.9556 61.6348 57.8555 62.1865 57.8555C62.5137 57.8555 62.8335 57.8945 63.146 57.9727C63.4585 58.0508 63.7539 58.1631 64.0322 58.3096C64.3154 58.4561 64.5791 58.6367 64.8232 58.8516C65.0674 59.0615 65.2822 59.2983 65.4678 59.562L61.7178 64.0811ZM62.7432 59.9575C62.6504 59.9233 62.5576 59.9014 62.4648 59.8916C62.377 59.8818 62.2842 59.877 62.1865 59.877C61.9131 59.877 61.6543 59.9282 61.4102 60.0308C61.1709 60.1284 60.9609 60.27 60.7803 60.4556C60.6045 60.6411 60.4653 60.8657 60.3628 61.1294C60.2603 61.3882 60.209 61.6812 60.209 62.0083C60.209 62.0815 60.2114 62.1646 60.2163 62.2573C60.2261 62.3501 60.2383 62.4453 60.2529 62.543C60.2725 62.6357 60.2944 62.7261 60.3188 62.814C60.3433 62.9019 60.375 62.98 60.4141 63.0483L62.7432 59.9575ZM78.5342 62.0083C78.5342 62.6235 78.4292 63.1851 78.2192 63.6929C78.0093 64.2007 77.7236 64.6377 77.3623 65.0039C77.001 65.3652 76.5762 65.646 76.0879 65.8462C75.6045 66.0464 75.0845 66.1465 74.5278 66.1465C73.9761 66.1465 73.4561 66.0439 72.9678 65.8389C72.4844 65.6338 72.0596 65.3481 71.6934 64.9819C71.332 64.6157 71.0464 64.1812 70.8364 63.6782C70.6265 63.1704 70.5215 62.6138 70.5215 62.0083V55.0356H72.5283V58.6978C72.6357 58.561 72.7651 58.439 72.9165 58.3315C73.0728 58.2241 73.2388 58.1362 73.4146 58.0679C73.5952 57.9995 73.7808 57.9482 73.9712 57.9141C74.1616 57.875 74.3472 57.8555 74.5278 57.8555C75.0845 57.8555 75.6045 57.9604 76.0879 58.1704C76.5762 58.3755 77.001 58.6636 77.3623 59.0347C77.7236 59.4058 78.0093 59.8452 78.2192 60.353C78.4292 60.856 78.5342 61.4077 78.5342 62.0083ZM76.52 62.0083C76.52 61.7056 76.4663 61.4248 76.3589 61.166C76.2563 60.9023 76.1147 60.6753 75.9341 60.4849C75.7534 60.2944 75.541 60.1455 75.2969 60.0381C75.0576 59.9307 74.8013 59.877 74.5278 59.877C74.2544 59.877 73.9956 59.938 73.7515 60.0601C73.5122 60.1772 73.3022 60.3359 73.1216 60.5361C72.9409 60.7314 72.7993 60.9585 72.6968 61.2173C72.5942 61.4712 72.543 61.7349 72.543 62.0083C72.543 62.311 72.5942 62.5918 72.6968 62.8506C72.7993 63.1094 72.9409 63.334 73.1216 63.5244C73.3022 63.7148 73.5122 63.8662 73.7515 63.9785C73.9956 64.0859 74.2544 64.1396 74.5278 64.1396C74.8013 64.1396 75.0576 64.0859 75.2969 63.9785C75.541 63.8662 75.7534 63.7148 75.9341 63.5244C76.1147 63.334 76.2563 63.1094 76.3589 62.8506C76.4663 62.5918 76.52 62.311 76.52 62.0083ZM81.5371 68.9883V66.9741L82.6504 66.9888C82.8457 66.9888 83.0337 66.957 83.2144 66.8936C83.395 66.8301 83.561 66.7422 83.7124 66.6299C83.8687 66.5176 84.0054 66.3833 84.1226 66.2271C84.2397 66.0757 84.335 65.9097 84.4082 65.729C84.1885 65.8218 83.9639 65.9146 83.7344 66.0073C83.5098 66.1001 83.2827 66.1465 83.0532 66.1465C82.5698 66.1465 82.1157 66.061 81.6909 65.8901C81.2661 65.7192 80.8926 65.4775 80.5703 65.165C80.2529 64.8477 80.0015 64.4644 79.8159 64.0151C79.6353 63.561 79.5449 63.0532 79.5449 62.4917V58.1558H81.5371V62.4917C81.5371 62.77 81.5762 63.0142 81.6543 63.2241C81.7373 63.4292 81.8472 63.6025 81.9839 63.7441C82.1206 63.8809 82.2793 63.9834 82.46 64.0518C82.6455 64.1201 82.8433 64.1543 83.0532 64.1543C83.2583 64.1543 83.4512 64.1079 83.6318 64.0151C83.8174 63.9175 83.9785 63.7905 84.1152 63.6343C84.252 63.478 84.3594 63.3022 84.4375 63.1069C84.5156 62.9067 84.5547 62.7017 84.5547 62.4917V58.1558H86.5688V65.0112C86.564 65.563 86.4565 66.0806 86.2466 66.564C86.0366 67.0474 85.7485 67.4697 85.3823 67.8311C85.021 68.1924 84.5986 68.478 84.1152 68.688C83.6318 68.8979 83.1143 69.0029 82.5625 69.0029L81.5371 68.9883ZM91.9009 58.6465C91.9009 58.2119 91.9839 57.8042 92.1499 57.4233C92.3159 57.0425 92.5405 56.7104 92.8237 56.4272C93.1118 56.1392 93.4463 55.9121 93.8271 55.7461C94.208 55.5801 94.6157 55.4971 95.0503 55.4971H99.8696V57.5991H95.0503C94.9038 57.5991 94.7671 57.626 94.6401 57.6797C94.5132 57.7334 94.4009 57.8091 94.3032 57.9067C94.2104 57.9995 94.1372 58.1094 94.0835 58.2363C94.0298 58.3633 94.0029 58.5 94.0029 58.6465C94.0029 58.793 94.0298 58.9321 94.0835 59.064C94.1372 59.1909 94.2104 59.3032 94.3032 59.4009C94.4009 59.4937 94.5132 59.5669 94.6401 59.6206C94.7671 59.6743 94.9038 59.7012 95.0503 59.7012H97.1523C97.5869 59.7012 97.9946 59.7842 98.3755 59.9502C98.7612 60.1113 99.0957 60.3359 99.3789 60.624C99.667 60.9072 99.8916 61.2417 100.053 61.6274C100.219 62.0083 100.302 62.416 100.302 62.8506C100.302 63.2852 100.219 63.6929 100.053 64.0737C99.8916 64.4546 99.667 64.7891 99.3789 65.0771C99.0957 65.3604 98.7612 65.585 98.3755 65.751C97.9946 65.917 97.5869 66 97.1523 66H92.4868V63.8979H97.1523C97.2988 63.8979 97.4355 63.8711 97.5625 63.8174C97.6895 63.7637 97.7993 63.6904 97.8921 63.5977C97.9897 63.5 98.0654 63.3877 98.1191 63.2607C98.1729 63.1338 98.1997 62.9971 98.1997 62.8506C98.1997 62.7041 98.1729 62.5674 98.1191 62.4404C98.0654 62.3135 97.9897 62.2036 97.8921 62.1108C97.7993 62.0132 97.6895 61.9375 97.5625 61.8838C97.4355 61.8301 97.2988 61.8032 97.1523 61.8032H95.0503C94.6157 61.8032 94.208 61.7202 93.8271 61.5542C93.4463 61.3882 93.1118 61.1636 92.8237 60.8804C92.5405 60.5923 92.3159 60.2578 92.1499 59.877C91.9839 59.4912 91.9009 59.0811 91.9009 58.6465ZM105.275 66C104.792 66 104.337 65.9097 103.913 65.729C103.488 65.5435 103.114 65.292 102.792 64.9746C102.475 64.6523 102.223 64.2788 102.038 63.854C101.857 63.4292 101.767 62.9751 101.767 62.4917V60.1626H100.792V58.1704H101.767V55.0356H103.759V58.1704H106.791V60.1626H103.759V62.4917C103.759 62.7017 103.798 62.8994 103.876 63.085C103.954 63.2656 104.062 63.4243 104.198 63.561C104.335 63.6978 104.496 63.8076 104.682 63.8906C104.867 63.9688 105.065 64.0078 105.275 64.0078H106.791V66H105.275ZM113.683 65.0845C113.522 65.231 113.349 65.3701 113.163 65.502C112.982 65.6289 112.792 65.7412 112.592 65.8389C112.392 65.9316 112.184 66.0049 111.969 66.0586C111.759 66.1172 111.544 66.1465 111.325 66.1465C110.841 66.1465 110.387 66.061 109.962 65.8901C109.538 65.7192 109.164 65.4775 108.842 65.165C108.524 64.8477 108.273 64.4644 108.087 64.0151C107.907 63.561 107.816 63.0532 107.816 62.4917V58.1558H109.809V62.4917C109.809 62.7554 109.848 62.9922 109.926 63.2021C110.009 63.4072 110.119 63.5806 110.255 63.7222C110.392 63.8638 110.551 63.9712 110.731 64.0444C110.917 64.1177 111.115 64.1543 111.325 64.1543C111.53 64.1543 111.723 64.1079 111.903 64.0151C112.089 63.9175 112.25 63.7905 112.387 63.6343C112.523 63.478 112.631 63.3022 112.709 63.1069C112.787 62.9067 112.826 62.7017 112.826 62.4917V58.1558H114.826V66H114.342L113.683 65.0845ZM123.937 66H123.454L122.677 64.9233C122.487 65.0942 122.284 65.2554 122.069 65.4067C121.859 65.5532 121.637 65.6826 121.403 65.7949C121.168 65.9023 120.927 65.9878 120.678 66.0513C120.434 66.1147 120.185 66.1465 119.931 66.1465C119.379 66.1465 118.859 66.0439 118.371 65.8389C117.887 65.6289 117.462 65.3408 117.096 64.9746C116.735 64.6035 116.449 64.1665 116.239 63.6636C116.029 63.1558 115.924 62.604 115.924 62.0083C115.924 61.4175 116.029 60.8682 116.239 60.3604C116.449 59.8525 116.735 59.4131 117.096 59.042C117.462 58.6709 117.887 58.3804 118.371 58.1704C118.859 57.9604 119.379 57.8555 119.931 57.8555C120.106 57.8555 120.287 57.8701 120.473 57.8994C120.663 57.9287 120.846 57.9775 121.022 58.0459C121.203 58.1094 121.371 58.1948 121.527 58.3022C121.684 58.4097 121.815 58.5415 121.923 58.6978V55.0356H123.937V66ZM121.923 62.0083C121.923 61.7349 121.869 61.4712 121.762 61.2173C121.659 60.9585 121.518 60.7314 121.337 60.5361C121.156 60.3359 120.944 60.1772 120.7 60.0601C120.46 59.938 120.204 59.877 119.931 59.877C119.657 59.877 119.398 59.9258 119.154 60.0234C118.915 60.1211 118.705 60.2627 118.524 60.4482C118.349 60.6289 118.209 60.8511 118.107 61.1147C118.004 61.3784 117.953 61.6763 117.953 62.0083C117.953 62.2964 118.004 62.5698 118.107 62.8286C118.209 63.0874 118.349 63.3145 118.524 63.5098C118.705 63.7051 118.915 63.8589 119.154 63.9712C119.398 64.0835 119.657 64.1396 119.931 64.1396C120.204 64.1396 120.46 64.0811 120.7 63.9639C120.944 63.8418 121.156 63.6831 121.337 63.4878C121.518 63.2876 121.659 63.0605 121.762 62.8066C121.869 62.5479 121.923 62.2817 121.923 62.0083ZM128.588 64.0811C128.666 64.1055 128.744 64.1226 128.822 64.1323C128.9 64.1372 128.979 64.1396 129.057 64.1396C129.252 64.1396 129.44 64.1128 129.621 64.0591C129.801 64.0054 129.97 63.9297 130.126 63.832C130.287 63.7295 130.429 63.6074 130.551 63.4658C130.678 63.3193 130.78 63.1582 130.858 62.9824L132.323 64.4546C132.138 64.7183 131.923 64.9551 131.679 65.165C131.439 65.375 131.178 65.5532 130.895 65.6997C130.617 65.8462 130.321 65.9561 130.009 66.0293C129.701 66.1074 129.384 66.1465 129.057 66.1465C128.505 66.1465 127.985 66.0439 127.497 65.8389C127.013 65.6338 126.588 65.3481 126.222 64.9819C125.861 64.6157 125.575 64.1812 125.365 63.6782C125.155 63.1704 125.05 62.6138 125.05 62.0083C125.05 61.3882 125.155 60.8218 125.365 60.3091C125.575 59.7964 125.861 59.3594 126.222 58.998C126.588 58.6367 127.013 58.356 127.497 58.1558C127.985 57.9556 128.505 57.8555 129.057 57.8555C129.384 57.8555 129.704 57.8945 130.016 57.9727C130.329 58.0508 130.624 58.1631 130.902 58.3096C131.186 58.4561 131.449 58.6367 131.693 58.8516C131.938 59.0615 132.152 59.2983 132.338 59.562L128.588 64.0811ZM129.613 59.9575C129.521 59.9233 129.428 59.9014 129.335 59.8916C129.247 59.8818 129.154 59.877 129.057 59.877C128.783 59.877 128.524 59.9282 128.28 60.0308C128.041 60.1284 127.831 60.27 127.65 60.4556C127.475 60.6411 127.335 60.8657 127.233 61.1294C127.13 61.3882 127.079 61.6812 127.079 62.0083C127.079 62.0815 127.082 62.1646 127.086 62.2573C127.096 62.3501 127.108 62.4453 127.123 62.543C127.143 62.6357 127.165 62.7261 127.189 62.814C127.213 62.9019 127.245 62.98 127.284 63.0483L129.613 59.9575ZM135.348 66H133.349V58.1558H133.832L134.491 58.9175C134.813 58.6245 135.177 58.3999 135.583 58.2437C135.993 58.0825 136.42 58.002 136.864 58.002C137.343 58.002 137.794 58.0947 138.219 58.2803C138.644 58.4609 139.015 58.7124 139.333 59.0347C139.65 59.3521 139.899 59.7256 140.08 60.1553C140.265 60.5801 140.358 61.0342 140.358 61.5176V66H138.358V61.5176C138.358 61.3125 138.319 61.1196 138.241 60.939C138.163 60.7534 138.056 60.5923 137.919 60.4556C137.782 60.3188 137.624 60.2114 137.443 60.1333C137.262 60.0552 137.069 60.0161 136.864 60.0161C136.654 60.0161 136.457 60.0552 136.271 60.1333C136.085 60.2114 135.924 60.3188 135.788 60.4556C135.651 60.5923 135.543 60.7534 135.465 60.939C135.387 61.1196 135.348 61.3125 135.348 61.5176V66ZM145.617 66C145.133 66 144.679 65.9097 144.254 65.729C143.83 65.5435 143.456 65.292 143.134 64.9746C142.816 64.6523 142.565 64.2788 142.379 63.854C142.199 63.4292 142.108 62.9751 142.108 62.4917V60.1626H141.134V58.1704H142.108V55.0356H144.101V58.1704H147.133V60.1626H144.101V62.4917C144.101 62.7017 144.14 62.8994 144.218 63.085C144.296 63.2656 144.403 63.4243 144.54 63.561C144.677 63.6978 144.838 63.8076 145.023 63.8906C145.209 63.9688 145.407 64.0078 145.617 64.0078H147.133V66H145.617ZM152.567 66H147.997V64.0078H152.567C152.704 64.0078 152.821 63.959 152.919 63.8613C153.017 63.7637 153.065 63.6465 153.065 63.5098C153.065 63.3682 153.017 63.2754 152.919 63.2314C152.821 63.1875 152.704 63.1655 152.567 63.1655H150.487C150.141 63.1655 149.816 63.0996 149.513 62.9678C149.21 62.8359 148.947 62.6577 148.722 62.4331C148.498 62.2036 148.319 61.9375 148.188 61.6348C148.061 61.332 147.997 61.0073 147.997 60.6606C147.997 60.314 148.061 59.9893 148.188 59.6865C148.319 59.3838 148.498 59.1201 148.722 58.8955C148.947 58.6709 149.21 58.4951 149.513 58.3682C149.816 58.2363 150.141 58.1704 150.487 58.1704H154.538V60.1626H150.487C150.351 60.1626 150.233 60.2114 150.136 60.3091C150.038 60.4067 149.989 60.5239 149.989 60.6606C149.989 60.8022 150.038 60.9243 150.136 61.0269C150.233 61.1245 150.351 61.1733 150.487 61.1733H152.567C152.909 61.1733 153.231 61.2319 153.534 61.3491C153.837 61.4614 154.101 61.6201 154.325 61.8252C154.55 62.0303 154.728 62.2769 154.86 62.5649C154.992 62.853 155.058 63.168 155.058 63.5098C155.058 63.8564 154.992 64.1812 154.86 64.4839C154.728 64.7817 154.55 65.0454 154.325 65.2749C154.101 65.4995 153.837 65.6777 153.534 65.8096C153.231 65.9365 152.909 66 152.567 66Z" fill="#72B3FF"/>
</svg>
